<?xml version="1.0" encoding="utf-8"?>
<!-- Generator: Adobe Illustrator 16.0.0, SVG Export Plug-In . SVG Version: 6.00 Build 0)  -->
<!DOCTYPE svg PUBLIC "-//W3C//DTD SVG 1.1//EN" "http://www.w3.org/Graphics/SVG/1.1/DTD/svg11.dtd">
<svg version="1.1" id="Layer_1" xmlns="http://www.w3.org/2000/svg" xmlns:xlink="http://www.w3.org/1999/xlink" x="0px" y="0px"
	 width="1280px" height="2000px" viewBox="0 0 1280 2000" enable-background="new 0 0 1280 2000" xml:space="preserve">
<path fill-rule="evenodd" clip-rule="evenodd" d="M838.454,826.064h-3.014V655.097c-0.197,0-0.305,0.09-0.501,0.09
	c-7.592,0-11.418-5.739-11.604-11.627h-6.312l-1.715-84.491c4.571-4.566,11.909-14.733,13.522-24.726
	c0.11-2.122,0.152-4.563,0.216-6.985c0.028-2.38,0.088-4.752,0.199-6.829l0.041-1.199l-0.846-0.862
	c-4.292-4.296-12.128-6.619-16.3-8.343l-0.117-5.98l-0.25-21.529c0,0,7.43-11.557,7.43-23.07c0-10.193-7.021-17.519-17.548-18.685
	l-1.135-21.891c3.205-0.944,8.495-6.795,8.309-13.588c-0.223-7.736-6.609-13.399-10.949-14.724c0,0-2.456-8.299-4.155-23.304
	c-1.132,15.004-4.333,23.304-4.333,23.304c-5.465,2.104-10.948,6.044-11.335,13.403c-0.346,6.972,3.595,13.402,7.898,14.52
	l-0.589,21.754c-14.282,1.958-18.117,8.168-18.117,19.449c0,11.275,8.563,22.832,8.563,22.832l-0.124,27.64
	c-4.987,1.322-8.386,4.223-12.722,7.031l-2.824,1.805l-1.322,0.841l0.037,1.541c0.085,2.572,0.049,4.789,0,7.021
	c-0.018,2.298-0.061,4.588,0.049,7.62c1.236,7.478,5.425,14.871,12.373,22.589l-1.005,45.046l-0.87,39.809h-10.304l-9.847-24.629
	c26.717-56.052-31.47-123.288-86.998-141.522v-6.866c-1.973-0.447-3.939-0.886-5.926-1.276v-5.118
	c-4.835-1.178-9.676-2.076-14.511-2.314v-3.562c2.733-0.85,4.775-3.453,4.775-6.51c0-3.044-2.042-5.639-4.775-6.488v-2.642
	c1.48-0.755,2.479-2.287,2.479-4.059c0-1.742-0.998-3.3-2.479-4.043v-6.687c0.756,0.14,1.56,0.231,2.389,0.231
	c5.224,0,9.784-2.947,12.063-7.286c-2.419,2.195-5.633,3.517-9.117,3.517c-7.514,0-13.622-6.11-13.622-13.64
	c0-2.266,0.562-4.409,1.554-6.312c-2.734,2.494-4.47,6.077-4.47,10.087c0,5.188,2.856,9.719,7.131,12.009v8.081
	c-1.48,0.743-2.473,2.301-2.473,4.043c0,1.772,0.992,3.304,2.473,4.059v2.642c-2.771,0.85-4.75,3.444-4.75,6.488
	c0,3.058,1.979,5.661,4.75,6.51v3.562c-4.773,0.238-9.549,1.096-14.365,2.314v5.097c-1.968,0.377-3.915,0.825-5.925,1.296v6.607
	c-55.742,17.882-114.632,85.495-87.741,141.828l-9.847,24.583h-10.096l-1.718-84.491c4.568-4.566,11.904-14.733,13.524-24.726
	c0.111-2.122,0.152-4.563,0.208-6.985c0.037-2.38,0.098-4.752,0.208-6.829l0.043-1.199l-0.846-0.862
	c-4.293-4.296-12.131-6.619-16.302-8.343l-0.122-5.98l-0.243-21.529c0,0,7.429-11.557,7.429-23.07
	c0-10.193-7.021-17.519-17.556-18.685l-1.127-21.891c3.209-0.944,8.495-6.795,8.307-13.588c-0.212-7.736-6.607-13.399-10.948-14.724
	c0,0-2.455-8.299-4.153-23.304c-1.139,15.004-4.342,23.304-4.342,23.304c-5.462,2.104-10.942,6.044-11.326,13.403
	c-0.347,6.972,3.593,13.402,7.897,14.52l-0.596,21.754c-14.267,1.958-18.117,8.168-18.117,19.449
	c0,11.275,8.562,22.832,8.562,22.832l-0.116,27.64c-4.986,1.322-8.384,4.223-12.727,7.031l-2.819,1.805l-1.32,0.841l0.03,1.541
	c0.084,2.572,0.054,4.789,0,7.021c-0.024,2.298-0.056,4.588,0.054,7.62c1.236,7.478,5.427,14.871,12.373,22.589l-1.005,45.046
	l-0.87,39.809h-5.639c-0.188,5.815-3.951,11.454-11.375,11.582v170.922h-3.591c-8.026,0-14.524,6.498-14.524,14.518v17.188h425.776
	v-16.311c0.022-0.311,0.175-0.569,0.175-0.876C852.976,832.562,846.461,826.064,838.454,826.064z M779.503,766.011h0.085
	c0.017-0.612,0.108-1.121,0.279-1.382c0.562-0.85,3.379-2.122,3.458-5.188c0.086-3.045-5.191-5.015-3.232-12.407
	c2.028-7.398,10.285-13.484,20.406-16.489c10.131,3.005,18.401,9.091,20.417,16.489c1.965,7.393-3.331,9.362-3.252,12.407
	c0.127,3.066,2.922,4.338,3.471,5.188c0.285,0.439,0.196,1.382,0.349,1.382v20.29h-41.98V766.011z M732.918,632.593
	c0-2.01,0.853-3.918,2.149-5.428c1.333-1.438,3.196-2.5,5.224-2.737c2.003-0.259,3.873,0.332,5.188,1.485
	c1.333,1.109,2.182,2.787,2.182,4.766v13.283c-4.915,0.777-9.811,1.557-14.743,2.287V632.593z M722.778,747.034
	c2.009-7.398,10.267-13.484,20.4-16.489c10.139,3.005,18.4,9.091,20.41,16.489c1.986,7.393-3.325,9.362-3.246,12.407
	c0.135,3.066,2.912,4.338,3.471,5.188c0.281,0.439,0.197,1.382,0.35,1.382v20.29h-41.981v-20.29h0.061
	c0.049-0.612,0.146-1.121,0.305-1.382c0.573-0.85,3.392-2.122,3.459-5.188C726.079,756.396,720.807,754.426,722.778,747.034z
	 M707.701,635.303c0-2.076,0.858-4.034,2.181-5.542c1.303-1.464,3.16-2.481,5.2-2.667c2.033-0.189,3.891,0.496,5.183,1.698
	c1.296,1.248,2.179,2.972,2.179,5.049v13.822c-4.915,0.637-9.847,1.182-14.742,1.77V635.303z M682.498,637.191
	c0-2.122,0.846-4.08,2.179-5.59c1.315-1.44,3.144-2.454,5.213-2.57c2.004-0.119,3.891,0.612,5.188,1.906
	c1.322,1.3,2.188,3.14,2.188,5.261v14.252c-4.958,0.445-9.854,0.823-14.767,1.203V637.191z M657.293,638.253
	c0-2.149,0.872-4.152,2.162-5.568c1.322-1.464,3.186-2.406,5.213-2.455c2.046-0.069,3.897,0.759,5.206,2.102
	c1.315,1.37,2.168,3.276,2.168,5.405v14.532c-4.921,0.258-9.811,0.444-14.749,0.636V638.253z M632.114,638.487
	c0-2.17,0.822-4.08,2.155-5.541c1.292-1.395,3.185-2.268,5.219-2.268c2.004,0,3.867,0.873,5.188,2.241
	c1.322,1.416,2.155,3.397,2.155,5.547v14.624c-4.926,0.094-9.821,0.094-14.717,0.073V638.487z M606.873,637.875
	c0-2.149,0.847-4.059,2.181-5.425c1.32-1.371,3.184-2.171,5.219-2.125c2.003,0.024,3.884,0.989,5.193,2.454
	c1.326,1.416,2.186,3.419,2.186,5.569v14.624c-4.926-0.14-9.828-0.304-14.779-0.584V637.875z M581.658,636.391
	c0-2.098,0.883-3.989,2.174-5.262c1.333-1.3,3.184-2.077,5.23-1.913c2.003,0.119,3.891,1.087,5.188,2.524
	c1.322,1.486,2.217,3.493,2.217,5.617v14.46c-4.969-0.378-9.858-0.73-14.809-1.157V636.391z M556.466,633.961
	c0-2.032,0.853-3.8,2.187-4.981c1.333-1.249,3.165-1.934,5.188-1.745c2.046,0.188,3.897,1.227,5.23,2.713
	c1.315,1.465,2.174,3.468,2.174,5.568v14.131c-4.951-0.591-9.853-1.178-14.779-1.838V633.961z M531.287,630.679
	c0-1.979,0.822-3.657,2.149-4.741c1.333-1.154,3.184-1.724,5.189-1.437c2.07,0.231,3.921,1.273,5.224,2.78
	c1.321,1.513,2.181,3.422,2.181,5.428v13.634c-4.921-0.755-9.828-1.604-14.743-2.381V630.679z M514.528,766.011h0.079
	c0.025-0.612,0.116-1.121,0.287-1.382c0.56-0.85,3.379-2.122,3.445-5.188c0.086-3.045-5.187-5.015-3.227-12.407
	c2.029-7.398,10.286-13.484,20.412-16.489c10.126,3.005,18.396,9.091,20.418,16.489c1.967,7.393-3.332,9.362-3.265,12.407
	c0.135,3.066,2.929,4.338,3.483,5.188c0.281,0.439,0.189,1.382,0.347,1.382v20.29h-41.98V766.011z M457.208,766.011h0.062
	c0.047-0.612,0.14-1.121,0.304-1.382c0.566-0.85,3.385-2.122,3.458-5.188c0.066-3.045-5.2-5.015-3.24-12.407
	c2.022-7.398,10.28-13.484,20.412-16.489c10.132,3.005,18.402,9.091,20.406,16.489c1.979,7.393-3.325,9.362-3.246,12.407
	c0.128,3.066,2.917,4.338,3.471,5.188c0.287,0.439,0.201,1.382,0.354,1.382v20.29h-41.981V766.011z M566.641,825.687h-0.219v-84.858
	h0.262c0.128-0.98,0.426-1.805,0.944-2.208c1.828-1.382,11.028-3.431,11.302-8.351c0.255-4.881-17.002-8.068-10.614-19.958
	c6.638-11.901,33.649-21.69,66.734-26.541c33.138,4.851,60.151,14.64,66.733,26.541c6.46,11.89-10.882,15.077-10.627,19.958
	c0.409,4.919,9.549,6.969,11.363,8.351c0.883,0.683,0.615,2.208,1.151,2.208v84.858h-0.536c0.013,0.128-0.043,0.247-0.043,0.377
	H566.647C566.66,825.934,566.617,825.815,566.641,825.687z"/>
</svg>
